<svg width="24" height="18" viewBox="0 0 24 18" fill="none" xmlns="http://www.w3.org/2000/svg">
<path d="M8.35645 17.1313C8.53418 17.3979 8.80078 17.4868 9.15625 17.4868C9.46729 17.4868 9.73389 17.3979 9.95605 17.1313L23.064 4.06787C23.2417 3.89014 23.375 3.62354 23.375 3.26807C23.375 2.95703 23.2417 2.69043 23.064 2.46826L21.4199 0.868652C21.1978 0.646484 20.9312 0.513184 20.6201 0.513184C20.3091 0.513184 20.0425 0.646484 19.8203 0.868652L9.15625 11.5327L4.17969 6.55615C3.91309 6.33398 3.64648 6.20068 3.33545 6.20068C3.02441 6.20068 2.75781 6.33398 2.58008 6.55615L0.936035 8.15576C0.713867 8.37793 0.625 8.64453 0.625 8.95557C0.625 9.31104 0.713867 9.57764 0.936035 9.75537L8.35645 17.1313Z" fill="white"/>
</svg>
